<?xml version="1.0" encoding="utf-8" standalone="no"?>
<!DOCTYPE svg PUBLIC "-//W3C//DTD SVG 1.1//EN"
  "http://www.w3.org/Graphics/SVG/1.1/DTD/svg11.dtd">
<svg xmlns:xlink="http://www.w3.org/1999/xlink" width="958.271685pt" height="300.921pt" viewBox="0 0 958.271685 300.921" xmlns="http://www.w3.org/2000/svg" version="1.1">
 <metadata>
  <rdf:RDF xmlns:dc="http://purl.org/dc/elements/1.1/" xmlns:cc="http://creativecommons.org/ns#" xmlns:rdf="http://www.w3.org/1999/02/22-rdf-syntax-ns#">
   <cc:Work>
    <dc:type rdf:resource="http://purl.org/dc/dcmitype/StillImage"/>
    <dc:date>2026-07-06T12:08:19.843577</dc:date>
    <dc:format>image/svg+xml</dc:format>
    <dc:creator>
     <cc:Agent>
      <dc:title>Matplotlib v3.10.0, https://matplotlib.org/</dc:title>
     </cc:Agent>
    </dc:creator>
   </cc:Work>
  </rdf:RDF>
 </metadata>
 <defs>
  <style type="text/css">*{stroke-linejoin: round; stroke-linecap: butt}</style>
 </defs>
 <g id="figure_1">
  <g id="patch_1">
   <path d="M 0 300.921 
L 958.271685 300.921 
L 958.271685 0 
L 0 0 
z
" style="fill: #ffffff"/>
  </g>
  <g id="axes_1">
   <g id="patch_2">
    <path d="M 178.856873 272.787037 
C 195.849593 268.047257 210.56127 257.304676 220.249607 242.561739 
C 229.937945 227.818803 233.961086 210.052239 231.569106 192.57378 
C 229.177127 175.095322 220.528496 159.062928 207.235343 147.465078 
C 193.942189 135.867228 176.885191 129.472286 159.243817 129.472286 
L 159.243817 202.471714 
z
" style="fill: #377eb8; stroke: #ffffff; stroke-width: 1.15; stroke-linejoin: miter"/>
   </g>
   <g id="patch_3">
    <path d="M 100.872085 158.635 
C 91.7146 170.828849 86.604242 185.591011 86.2627 200.836758 
C 85.921158 216.082506 90.365304 231.058712 98.967531 243.650422 
C 107.569759 256.242131 119.905125 265.827325 134.231617 271.052371 
C 148.558108 276.277416 164.168009 276.884202 178.856873 272.787037 
L 159.243817 202.471714 
z
" style="fill: #009e73; stroke: #ffffff; stroke-width: 1.15; stroke-linejoin: miter"/>
   </g>
   <g id="patch_4">
    <path d="M 135.243897 133.530287 
C 128.433199 135.90123 122.011278 139.268379 116.187645 143.521883 
C 110.364013 147.775386 105.202698 152.868479 100.872085 158.635 
L 159.243817 202.471714 
z
" style="fill: #e69f00; stroke: #ffffff; stroke-width: 1.15; stroke-linejoin: miter"/>
   </g>
   <g id="patch_5">
    <path d="M 159.24381 129.472286 
C 155.165636 129.472286 151.094625 129.814032 147.073527 130.493936 
C 143.052428 131.173839 139.095367 132.189511 135.243897 133.530287 
L 159.243817 202.471714 
z
" style="fill: #7b61a8; stroke: #ffffff; stroke-width: 1.15; stroke-linejoin: miter"/>
   </g>
   <g id="patch_6">
    <path d="M 248.496306 191.995318 
Q 222.890072 192.43186 222.890072 193.761533 
" style="fill: none; stroke: #d1d5db; stroke-width: 0.75; stroke-linecap: round"/>
   </g>
   <g id="text_1">
    <text style="font-size: 7.5px; font-family: 'DejaVu Sans'; fill: #1f2937" transform="translate(250.493103 189.794768)">Facebook-44K</text>
    <text style="font-size: 7.5px; font-family: 'DejaVu Sans'; fill: #1f2937" transform="translate(250.493103 197.908186)">43,078 (45.7%)</text>
   </g>
   <g id="patch_7">
    <path d="M 69.991558 246.358413 
Q 106.200686 244.747298 106.200686 238.708977 
" style="fill: none; stroke: #d1d5db; stroke-width: 0.75; stroke-linecap: round"/>
   </g>
   <g id="text_2">
    <text style="font-size: 7.5px; font-family: 'DejaVu Sans'; fill: #1f2937" transform="translate(41.886328 244.957541)">BANTH</text>
    <text style="font-size: 7.5px; font-family: 'DejaVu Sans'; fill: #1f2937" transform="translate(9.690234 253.070959)">37,334 (39.6%)</text>
   </g>
   <g id="patch_8">
    <path d="M 69.997188 139.360815 
Q 121.354386 141.363723 121.354386 150.595862 
" style="fill: none; stroke: #d1d5db; stroke-width: 0.75; stroke-linecap: round"/>
   </g>
   <g id="text_3">
    <text style="font-size: 7.5px; font-family: 'DejaVu Sans'; fill: #1f2937" transform="translate(7.2 136.818718)">Multilabel-12.5K</text>
    <text style="font-size: 7.5px; font-family: 'DejaVu Sans'; fill: #1f2937" transform="translate(19.233984 144.932136)">8,882 (9.4%)</text>
   </g>
   <g id="patch_9">
    <path d="M 69.99618 124.99734 
Q 148.533962 126.676398 148.533962 139.131269 
" style="fill: none; stroke: #d1d5db; stroke-width: 0.75; stroke-linecap: round"/>
   </g>
   <g id="text_4">
    <text style="font-size: 7.5px; font-family: 'DejaVu Sans'; fill: #1f2937" transform="translate(39.205078 122.748536)">BD-SHS</text>
    <text style="font-size: 7.5px; font-family: 'DejaVu Sans'; fill: #1f2937" transform="translate(19.233984 130.861954)">5,029 (5.3%)</text>
   </g>
   <g id="text_5">
    <text style="font-size: 7.7px; font-family: 'DejaVu Sans'; text-anchor: middle; fill: #6b7280" x="159.243817" y="105.971098" transform="rotate(-0 159.243817 105.971098)">Four merged datasets</text>
   </g>
   <g id="text_6">
    <text style="font-weight: 700; font-size: 10.7px; font-family: 'DejaVu Sans'; text-anchor: middle; fill: #1f2937" x="159.243817" y="95.222429" transform="rotate(-0 159.243817 95.222429)">By source</text>
   </g>
  </g>
  <g id="axes_2">
   <g id="patch_10">
    <path d="M 435.933279 260.379575 
C 445.135697 267.44297 455.89064 272.212067 467.303668 274.290243 
C 478.716697 276.368418 490.462399 275.696418 501.563936 272.330129 
C 512.665473 268.96384 522.806316 262.999243 531.143094 254.932388 
C 539.479873 246.865533 545.774887 236.926423 549.504607 225.941651 
C 553.234328 214.956879 554.292413 203.239646 552.590865 191.764422 
C 550.889318 180.289198 546.476653 169.383168 539.719853 159.953338 
C 532.963053 150.523509 524.05477 142.838746 513.735865 137.538157 
C 503.416961 132.237568 491.981651 129.472286 480.38096 129.472286 
L 480.38096 202.471714 
z
" style="fill: #377eb8; stroke: #ffffff; stroke-width: 1.15; stroke-linejoin: miter"/>
   </g>
   <g id="patch_11">
    <path d="M 480.38096 129.472286 
C 465.131387 129.472286 450.258472 134.250737 437.862584 143.132821 
C 425.466695 152.014905 416.16018 164.561855 411.257312 179.001778 
C 406.354445 193.4417 406.097424 209.061275 410.522545 223.654691 
C 414.947667 238.248106 423.836334 251.094459 435.933279 260.379575 
L 480.38096 202.471714 
z
" style="fill: #e69f00; stroke: #ffffff; stroke-width: 1.15; stroke-linejoin: miter"/>
   </g>
   <g id="patch_12">
    <path d="M 569.63023 227.370201 
Q 541.20977 226.367416 541.20977 223.125259 
" style="fill: none; stroke: #d1d5db; stroke-width: 0.75; stroke-linecap: round"/>
   </g>
   <g id="text_7">
    <text style="font-size: 7.5px; font-family: 'DejaVu Sans'; fill: #1f2937" transform="translate(571.630246 225.832068)">Bangla script</text>
    <text style="font-size: 7.5px; font-family: 'DejaVu Sans'; fill: #1f2937" transform="translate(571.630246 233.945486)">56,989 (60.4%)</text>
   </g>
   <g id="patch_13">
    <path d="M 391.1331 177.668356 
Q 419.55215 178.722413 419.55215 181.81817 
" style="fill: none; stroke: #d1d5db; stroke-width: 0.75; stroke-linecap: round"/>
   </g>
   <g id="text_8">
    <text style="font-size: 7.5px; font-family: 'DejaVu Sans'; fill: #1f2937" transform="translate(319.298471 175.137005)">Romanized Bangla</text>
    <text style="font-size: 7.5px; font-family: 'DejaVu Sans'; fill: #1f2937" transform="translate(330.827377 183.250423)">37,334 (39.6%)</text>
   </g>
   <g id="text_9">
    <text style="font-size: 7.7px; font-family: 'DejaVu Sans'; text-anchor: middle; fill: #6b7280" x="480.38096" y="105.971098" transform="rotate(-0 480.38096 105.971098)">Bangla + Romanized Bangla</text>
   </g>
   <g id="text_10">
    <text style="font-weight: 700; font-size: 10.7px; font-family: 'DejaVu Sans'; text-anchor: middle; fill: #1f2937" x="480.38096" y="95.222429" transform="rotate(-0 480.38096 95.222429)">By script</text>
   </g>
  </g>
  <g id="axes_3">
   <g id="patch_14">
    <path d="M 800.786283 275.467475 
C 810.402783 275.563885 819.944223 273.759028 828.861098 270.156847 
C 837.777973 266.554666 845.895754 261.225667 852.746926 254.476755 
C 859.598097 247.727843 865.048562 239.691113 868.78442 230.829413 
C 872.520279 221.967713 874.468408 212.454491 874.516614 202.837629 
C 874.56482 193.220766 872.712158 183.688493 869.065326 174.789786 
C 865.418494 165.891079 860.048872 157.800112 853.265702 150.982856 
C 846.482533 144.1656 838.418583 138.755488 829.538268 135.064097 
C 820.657953 131.372705 811.135086 129.472286 801.518103 129.472286 
L 801.518103 202.471714 
z
" style="fill: #009e73; stroke: #ffffff; stroke-width: 1.15; stroke-linejoin: miter"/>
   </g>
   <g id="patch_15">
    <path d="M 728.898844 195.031294 
C 727.864107 205.130435 728.947384 215.335258 732.079288 224.992095 
C 735.211191 234.648933 740.32339 243.547097 747.088424 251.116618 
C 753.853457 258.686138 762.12373 264.761868 771.369491 268.954628 
C 780.615252 273.147387 790.634782 275.3657 800.786283 275.467475 
L 801.518103 202.471714 
z
" style="fill: #e15759; stroke: #ffffff; stroke-width: 1.15; stroke-linejoin: miter"/>
   </g>
   <g id="patch_16">
    <path d="M 751.876311 148.949671 
C 745.42836 154.930158 740.113886 162.026924 736.189548 169.897239 
C 732.265209 177.767553 729.795212 186.282648 728.898844 195.031294 
L 801.518103 202.471714 
z
" style="fill: #e69f00; stroke: #ffffff; stroke-width: 1.15; stroke-linejoin: miter"/>
   </g>
   <g id="patch_17">
    <path d="M 786.10339 131.118346 
C 779.731105 132.494972 773.571851 134.719041 767.790129 137.731152 
C 762.008407 140.743264 756.656152 144.51636 751.876311 148.949671 
L 801.518103 202.471714 
z
" style="fill: #377eb8; stroke: #ffffff; stroke-width: 1.15; stroke-linejoin: miter"/>
   </g>
   <g id="patch_18">
    <path d="M 801.518089 129.472286 
C 798.928876 129.472286 796.341496 129.610042 793.766921 129.884968 
C 791.192345 130.159894 788.634219 130.571602 786.10339 131.118346 
L 801.518103 202.471714 
z
" style="fill: #7b61a8; stroke: #ffffff; stroke-width: 1.15; stroke-linejoin: miter"/>
   </g>
   <g id="patch_19">
    <path d="M 890.765264 202.858801 
Q 865.756793 202.842554 865.756793 202.793719 
" style="fill: none; stroke: #d1d5db; stroke-width: 0.75; stroke-linecap: round"/>
   </g>
   <g id="text_11">
    <text style="font-size: 7.5px; font-family: 'DejaVu Sans'; fill: #1f2937" transform="translate(892.767388 200.879724)">none</text>
    <text style="font-size: 7.5px; font-family: 'DejaVu Sans'; fill: #1f2937" transform="translate(892.767388 208.993142)">47,312 (50.2%)</text>
   </g>
   <g id="patch_20">
    <path d="M 712.267357 254.425269 
Q 753.619985 252.626735 753.619985 245.279229 
" style="fill: none; stroke: #d1d5db; stroke-width: 0.75; stroke-linecap: round"/>
   </g>
   <g id="text_12">
    <text style="font-size: 7.5px; font-family: 'DejaVu Sans'; fill: #1f2937" transform="translate(681.113739 253.021032)">abusive</text>
    <text style="font-size: 7.5px; font-family: 'DejaVu Sans'; fill: #1f2937" transform="translate(651.96452 261.13445)">24,963 (26.5%)</text>
   </g>
   <g id="patch_21">
    <path d="M 712.266552 167.837142 
Q 744.028974 169.177077 744.028974 173.806176 
" style="fill: none; stroke: #d1d5db; stroke-width: 0.75; stroke-linecap: round"/>
   </g>
   <g id="text_13">
    <text style="font-size: 7.5px; font-family: 'DejaVu Sans'; fill: #1f2937" transform="translate(686.006317 165.304103)">sexual</text>
    <text style="font-size: 7.5px; font-family: 'DejaVu Sans'; fill: #1f2937" transform="translate(651.96452 173.417521)">10,822 (11.5%)</text>
   </g>
   <g id="patch_22">
    <path d="M 712.271606 132.915231 
Q 771.837486 134.720859 771.837486 145.50002 
" style="fill: none; stroke: #d1d5db; stroke-width: 0.75; stroke-linecap: round"/>
   </g>
   <g id="text_14">
    <text style="font-size: 7.5px; font-family: 'DejaVu Sans'; fill: #1f2937" transform="translate(678.478192 130.56473)">religious</text>
    <text style="font-size: 7.5px; font-family: 'DejaVu Sans'; fill: #1f2937" transform="translate(661.50827 138.678148)">8,032 (8.5%)</text>
   </g>
   <g id="patch_23">
    <path d="M 712.268581 124.321952 
Q 794.697062 125.959817 794.697062 138.595377 
" style="fill: none; stroke: #d1d5db; stroke-width: 0.75; stroke-linecap: round"/>
   </g>
   <g id="text_15">
    <text style="font-size: 7.5px; font-family: 'DejaVu Sans'; fill: #1f2937" transform="translate(687.509833 122.09085)">threat</text>
    <text style="font-size: 7.5px; font-family: 'DejaVu Sans'; fill: #1f2937" transform="translate(661.50827 130.204268)">3,194 (3.4%)</text>
   </g>
   <g id="text_16">
    <text style="font-size: 7.7px; font-family: 'DejaVu Sans'; text-anchor: middle; fill: #6b7280" x="801.518103" y="105.971098" transform="rotate(-0 801.518103 105.971098)">Five-class taxonomy</text>
   </g>
   <g id="text_17">
    <text style="font-weight: 700; font-size: 10.7px; font-family: 'DejaVu Sans'; text-anchor: middle; fill: #1f2937" x="801.518103" y="95.222429" transform="rotate(-0 801.518103 95.222429)">By class</text>
   </g>
  </g>
  <g id="text_18">
   <text style="font-weight: 700; font-size: 13.4px; font-family: 'DejaVu Sans'; text-anchor: middle; fill: #1f2937" x="478.998817" y="17.381906" transform="rotate(-0 478.998817 17.381906)">Dataset composition of BanglaCyberBench</text>
  </g>
  <g id="text_19">
   <text style="font-size: 9.2px; font-family: 'DejaVu Sans'; text-anchor: middle; fill: #6b7280" x="478.998817" y="34.308625" transform="rotate(-0 478.998817 34.308625)">Final deduplicated benchmark: 94,323 unique comments</text>
  </g>
 </g>
</svg>
